<svg width="478" height="60" viewBox="0 0 478 60" fill="none" xmlns="http://www.w3.org/2000/svg">
<g clip-path="url(#clip0_8_2613)">
<rect x="0.5" y="0.5" width="477" height="59" rx="12.5" fill="#F2F2FF" stroke="#C3BFFA"/>
<path d="M0.5 30H477" stroke="#BDBAFA"/>
<path d="M0 26.5V33" stroke="#BDBAFA"/>
<path d="M3.5 24.5V36" stroke="#BDBAFA" stroke-width="1.5"/>
<path d="M7 19.5V40" stroke="#BDBAFA"/>
<path d="M10.5 21.5V38" stroke="#BDBAFA" stroke-width="1.2"/>
<path d="M14 24.5V35.5" stroke="#BDBAFA"/>
<path d="M17.5 26.5V33" stroke="#BDBAFA" stroke-width="1.5"/>
<path d="M21 28V32" stroke="#BDBAFA" stroke-width="1.5"/>
<path d="M24.5 28V32" stroke="#BDBAFA" stroke-width="1.5"/>
<path d="M28.5 27V32" stroke="#BDBAFA"/>
<path d="M31.5 25V34" stroke="#BDBAFA" stroke-width="1.5"/>
<path d="M35.5 22.5V37" stroke="#BDBAFA"/>
<path d="M39 25V35" stroke="#BDBAFA"/>
<path d="M42.5 28V32" stroke="#BDBAFA" stroke-width="1.5"/>
<path d="M45.5 18V42" stroke="#BDBAFA" stroke-width="1.5"/>
<path d="M49.5 20V38.5" stroke="#BDBAFA"/>
<path d="M53 23V36" stroke="#BDBAFA"/>
<path d="M56.5 25.5V34" stroke="#BDBAFA" stroke-width="1.5"/>
<path d="M60 27.5V32.5" stroke="#BDBAFA"/>
<path d="M63.5 25V34.5" stroke="#BDBAFA" stroke-width="1.7"/>
<path d="M67 21V38.5" stroke="#BDBAFA"/>
<path d="M70.5 18V41" stroke="#BDBAFA"/>
<path d="M74 14.5V45" stroke="#BDBAFA"/>
<path d="M77.5 10V49" stroke="#BDBAFA" stroke-width="1.5"/>
<path d="M81 13V46" stroke="#BDBAFA"/>
<path d="M84.5 17V42" stroke="#BDBAFA"/>
<path d="M88 21.5V38" stroke="#BDBAFA"/>
<path d="M92 24.5V35" stroke="#BDBAFA"/>
<path d="M95.5 27V32" stroke="#BDBAFA" stroke-width="1.5"/>
<path d="M98.5 24.5V34" stroke="#BDBAFA"/>
<path d="M102.5 20V39" stroke="#BDBAFA"/>
<path d="M106 23V36" stroke="#BDBAFA"/>
<path d="M109.5 27V32" stroke="#BDBAFA"/>
<path d="M113 20.5V39" stroke="#BDBAFA"/>
<path d="M116.5 24V35" stroke="#BDBAFA" stroke-width="1.5"/>
<path d="M120 18.5V40.5" stroke="#BDBAFA"/>
<path d="M123.5 22V37" stroke="#BDBAFA" stroke-width="1.5"/>
<path d="M127 27.5V32" stroke="#BDBAFA"/>
<path d="M130.5 23V36.5" stroke="#BDBAFA"/>
<path d="M134 25V34" stroke="#BDBAFA"/>
<path d="M137.5 26.5V33" stroke="#BDBAFA"/>
<path d="M141 24.5V36" stroke="#BDBAFA" stroke-width="1.5"/>
<path d="M144.5 19.5V40" stroke="#BDBAFA"/>
<path d="M148 21.5V38" stroke="#BDBAFA" stroke-width="1.2"/>
<path d="M151.5 24.5V35.5" stroke="#BDBAFA"/>
<path d="M155 26.5V33" stroke="#BDBAFA" stroke-width="1.5"/>
<path d="M158.5 28V32" stroke="#BDBAFA" stroke-width="1.5"/>
<path d="M162 28V32" stroke="#BDBAFA" stroke-width="1.5"/>
<path d="M166 27V32" stroke="#BDBAFA"/>
<path d="M169 25V34" stroke="#BDBAFA" stroke-width="1.5"/>
<path d="M173 22.5V37" stroke="#BDBAFA"/>
<path d="M176.5 25V35" stroke="#BDBAFA"/>
<path d="M180 28V32" stroke="#BDBAFA" stroke-width="1.5"/>
<path d="M183 18V42" stroke="#BDBAFA" stroke-width="1.5"/>
<path d="M187 20V38.5" stroke="#BDBAFA"/>
<path d="M190.5 23V36" stroke="#BDBAFA"/>
<path d="M194 25.5V34" stroke="#BDBAFA" stroke-width="1.5"/>
<path d="M197.5 27.5V32.5" stroke="#BDBAFA"/>
<path d="M201 25V34.5" stroke="#BDBAFA" stroke-width="1.7"/>
<path d="M204.5 21V38.5" stroke="#BDBAFA"/>
<path d="M208 18V41" stroke="#BDBAFA"/>
<path d="M211.5 14.5V45" stroke="#BDBAFA"/>
<path d="M215 10V49" stroke="#BDBAFA" stroke-width="1.5"/>
<path d="M218.5 13V46" stroke="#BDBAFA"/>
<path d="M222 17V42" stroke="#BDBAFA"/>
<path d="M225.5 21.5V38" stroke="#BDBAFA"/>
<path d="M229.5 24.5V35" stroke="#BDBAFA"/>
<path d="M233 27V32" stroke="#BDBAFA" stroke-width="1.5"/>
<path d="M236 24.5V34" stroke="#BDBAFA"/>
<path d="M240 20V39" stroke="#BDBAFA"/>
<path d="M243.5 23V36" stroke="#BDBAFA"/>
<path d="M247 27V32" stroke="#BDBAFA"/>
<path d="M250.5 20.5V39" stroke="#BDBAFA"/>
<path d="M254 24V35" stroke="#BDBAFA" stroke-width="1.5"/>
<path d="M257.5 18.5V40.5" stroke="#BDBAFA"/>
<path d="M261 22V37" stroke="#BDBAFA" stroke-width="1.5"/>
<path d="M264.5 27.5V32" stroke="#BDBAFA"/>
<path d="M268 23V36.5" stroke="#BDBAFA"/>
<path d="M271.5 25V34" stroke="#BDBAFA"/>
<path d="M273.5 26.5V33" stroke="#BDBAFA"/>
<path d="M277 24.5V36" stroke="#BDBAFA" stroke-width="1.5"/>
<path d="M280.5 19.5V40" stroke="#BDBAFA"/>
<path d="M284 21.5V38" stroke="#BDBAFA" stroke-width="1.2"/>
<path d="M287.5 24.5V35.5" stroke="#BDBAFA"/>
<path d="M291 26.5V33" stroke="#BDBAFA" stroke-width="1.5"/>
<path d="M294.5 28V32" stroke="#BDBAFA" stroke-width="1.5"/>
<path d="M298 28V32" stroke="#BDBAFA" stroke-width="1.5"/>
<path d="M302 27V32" stroke="#BDBAFA"/>
<path d="M305 25V34" stroke="#BDBAFA" stroke-width="1.5"/>
<path d="M309 22.5V37" stroke="#BDBAFA"/>
<path d="M312.5 25V35" stroke="#BDBAFA"/>
<path d="M316 28V32" stroke="#BDBAFA" stroke-width="1.5"/>
<path d="M319 18V42" stroke="#BDBAFA" stroke-width="1.5"/>
<path d="M323 20V38.5" stroke="#BDBAFA"/>
<path d="M326.5 23V36" stroke="#BDBAFA"/>
<path d="M330 25.5V34" stroke="#BDBAFA" stroke-width="1.5"/>
<path d="M333.5 27.5V32.5" stroke="#BDBAFA"/>
<path d="M337 25V34.5" stroke="#BDBAFA" stroke-width="1.7"/>
<path d="M340.5 21V38.5" stroke="#BDBAFA"/>
<path d="M344 18V41" stroke="#BDBAFA"/>
<path d="M347.5 14.5V45" stroke="#BDBAFA"/>
<path d="M351 10V49" stroke="#BDBAFA" stroke-width="1.5"/>
<path d="M354.5 13V46" stroke="#BDBAFA"/>
<path d="M358 17V42" stroke="#BDBAFA"/>
<path d="M361.5 21.5V38" stroke="#BDBAFA"/>
<path d="M365.5 24.5V35" stroke="#BDBAFA"/>
<path d="M369 27V32" stroke="#BDBAFA" stroke-width="1.5"/>
<path d="M372 24.5V34" stroke="#BDBAFA"/>
<path d="M376 20V39" stroke="#BDBAFA"/>
<path d="M379.5 23V36" stroke="#BDBAFA"/>
<path d="M383 27V32" stroke="#BDBAFA"/>
<path d="M386.5 20.5V39" stroke="#BDBAFA"/>
<path d="M390 24V35" stroke="#BDBAFA" stroke-width="1.5"/>
<path d="M393.5 18.5V40.5" stroke="#BDBAFA"/>
<path d="M397 22V37" stroke="#BDBAFA" stroke-width="1.5"/>
<path d="M400.5 27.5V32" stroke="#BDBAFA"/>
<path d="M404 23V36.5" stroke="#BDBAFA"/>
<path d="M407.5 25V34" stroke="#BDBAFA"/>
<path d="M407.5 26.5V33" stroke="#BDBAFA"/>
<path d="M411 24.5V36" stroke="#BDBAFA" stroke-width="1.5"/>
<path d="M414.5 19.5V40" stroke="#BDBAFA"/>
<path d="M418 21.5V38" stroke="#BDBAFA" stroke-width="1.2"/>
<path d="M421.5 24.5V35.5" stroke="#BDBAFA"/>
<path d="M425 26.5V33" stroke="#BDBAFA" stroke-width="1.5"/>
<path d="M428.5 28V32" stroke="#BDBAFA" stroke-width="1.5"/>
<path d="M432 28V32" stroke="#BDBAFA" stroke-width="1.5"/>
<path d="M436 27V32" stroke="#BDBAFA"/>
<path d="M439 25V34" stroke="#BDBAFA" stroke-width="1.5"/>
<path d="M443 22.5V37" stroke="#BDBAFA"/>
<path d="M446.5 25V35" stroke="#BDBAFA"/>
<path d="M450 28V32" stroke="#BDBAFA" stroke-width="1.5"/>
<path d="M453 18V42" stroke="#BDBAFA" stroke-width="1.5"/>
<path d="M457 20V38.5" stroke="#BDBAFA"/>
<path d="M460.5 23V36" stroke="#BDBAFA"/>
<path d="M464 25.5V34" stroke="#BDBAFA" stroke-width="1.5"/>
<path d="M467.5 27.5V32.5" stroke="#BDBAFA"/>
<path d="M471 25V34.5" stroke="#BDBAFA" stroke-width="1.7"/>
<path d="M474.5 21V38.5" stroke="#BDBAFA"/>
<path d="M478 18V41" stroke="#BDBAFA"/>
</g>
<defs>
<clipPath id="clip0_8_2613">
<rect width="478" height="60" fill="white"/>
</clipPath>
</defs>
</svg>
