<svg width="1229" height="310" viewBox="0 0 1229 310" fill="none" xmlns="http://www.w3.org/2000/svg">
<path d="M417.04 230.166C412.645 230.166 409.649 228.368 407.651 225.172H371.294C357.91 225.172 347.522 225.571 340.131 225.571C321.552 225.571 312.363 223.174 312.363 215.184C312.363 209.59 317.158 206.993 322.951 205.795C326.746 204.396 327.146 199.003 327.146 191.611V115.301C327.146 107.71 326.147 102.516 322.352 101.118C316.558 99.5197 312.963 97.3223 312.963 92.3281C312.963 83.3387 327.545 80.542 348.721 80.542C371.094 80.542 383.679 83.3387 383.679 92.1284C383.679 97.522 379.884 99.5197 373.691 101.118C369.496 102.516 369.097 108.309 369.097 115.701V184.62C369.097 200.401 370.095 205.195 378.086 205.195H384.478C395.865 205.195 404.255 203.997 407.451 200.201C410.248 196.805 412.446 189.614 414.443 184.02C417.44 174.631 420.836 168.838 427.228 168.838C433.421 168.838 438.815 175.43 438.815 188.815C438.815 208.591 429.026 230.166 417.04 230.166ZM476.383 226.77C458.404 226.77 446.218 223.973 446.218 215.184C446.218 210.389 449.614 208.392 453.809 206.993C456.406 205.994 456.806 201 456.806 194.608V160.448C456.806 154.255 455.807 148.262 453.21 147.463C447.816 145.865 445.219 143.268 445.219 139.473C445.219 136.476 446.618 134.079 450.214 131.882C459.403 125.889 477.182 122.093 484.973 122.093C495.56 122.093 496.16 128.685 496.16 141.271C496.16 148.462 495.96 157.052 495.96 167.04V194.608C495.96 202.798 496.359 205.994 498.757 206.993C503.151 208.591 506.547 210.389 506.547 215.184C506.547 224.173 493.762 226.77 476.383 226.77ZM451.812 97.7218C451.812 84.9368 466.594 80.3422 478.98 80.3422C491.965 80.3422 498.157 86.535 498.157 95.3246C498.157 107.51 482.975 112.305 470.989 112.305C458.204 112.305 451.812 106.511 451.812 97.7218ZM570.004 228.168C560.415 228.168 550.227 226.171 542.237 221.776C541.438 225.771 538.441 228.368 534.046 228.368C523.259 228.368 514.869 210.989 514.869 198.403C514.869 190.213 518.465 186.417 523.059 186.417C528.053 186.417 530.85 190.613 534.446 195.407C543.036 206.594 553.623 212.187 562.812 212.187C570.403 212.187 575.597 208.791 575.597 203.397C575.597 196.206 568.206 194.208 554.822 190.213C535.445 184.02 516.667 176.429 516.667 156.053C516.667 134.878 535.644 120.695 559.416 120.695C568.206 120.695 577.995 122.692 585.785 126.887C586.584 123.092 589.581 120.495 593.376 120.495C602.566 120.495 610.956 136.276 610.956 147.663C610.956 155.853 606.161 158.65 602.166 158.65C597.771 158.65 594.775 155.254 590.78 150.46C584.187 141.47 574.399 136.676 566.208 136.676C558.617 136.676 554.422 140.671 554.422 145.466C554.422 151.658 560.615 153.856 573.799 157.452C590.979 162.246 613.553 170.236 613.553 193.409C613.553 214.185 594.775 228.168 570.004 228.168ZM664.487 227.369C644.71 227.369 633.723 216.582 633.723 198.004L633.523 144.866H632.125C627.73 144.866 621.138 143.268 621.138 136.476C621.138 129.484 631.925 121.094 641.114 114.502C649.704 108.509 658.893 103.115 664.886 103.115C669.88 103.115 672.677 106.312 672.677 112.504V126.688H695.051C701.843 126.688 704.04 129.085 704.04 135.477C704.04 141.87 702.242 144.467 695.051 144.467H672.677V187.416C672.677 197.804 675.474 200.801 681.067 200.801C689.657 200.801 694.252 193.809 699.445 193.809C703.041 193.809 705.438 196.206 705.438 201C705.438 210.589 688.259 227.369 664.487 227.369ZM760.492 228.368C730.128 228.368 709.153 206.993 709.153 176.829C709.153 144.267 733.524 121.094 764.288 121.094C793.254 121.094 809.435 140.472 809.435 157.052C809.435 167.04 803.442 173.433 792.455 173.433H744.311C747.308 187.616 757.296 196.006 772.678 196.006C783.066 196.006 790.257 192.41 796.25 188.016C798.647 186.417 801.045 185.019 803.442 185.019C807.437 185.019 810.034 187.616 810.034 193.209C810.034 198.004 807.637 203.997 803.242 209.59C795.451 219.578 780.669 228.368 760.492 228.368ZM743.313 160.848L763.689 160.448C773.877 160.048 778.271 156.453 778.271 150.26C778.271 142.869 772.878 136.476 763.689 136.476C752.102 136.476 744.311 146.464 743.313 160.848ZM918.872 226.77C900.893 226.77 889.506 223.973 889.506 215.383C889.506 210.589 892.902 208.791 896.498 207.393C899.095 205.595 899.295 200.601 899.295 194.608V174.432C899.295 154.056 895.1 147.264 885.711 147.264C877.121 147.264 870.129 154.056 869.929 174.831V194.608C869.929 201.999 869.929 205.595 872.526 207.393C876.322 208.991 879.718 210.589 879.718 215.383C879.718 224.173 867.732 226.77 850.352 226.77C832.373 226.77 820.188 223.973 820.188 215.184C820.188 210.189 823.983 208.192 827.779 206.993C830.576 205.595 830.775 200.801 830.775 194.608V160.448C830.775 154.255 829.777 148.262 827.18 147.463C821.786 145.865 819.189 143.268 819.189 139.473C819.189 136.476 820.587 134.079 824.183 131.882C833.372 125.889 851.151 122.093 858.942 122.093C869.33 122.093 869.929 128.685 869.929 141.271V144.267C876.322 131.083 888.907 121.094 906.287 121.094C925.664 121.094 938.449 133.879 938.449 158.45V194.608C938.449 202.199 938.449 205.595 941.245 206.993C945.44 208.392 949.036 210.189 949.036 215.184C949.036 224.173 936.251 226.77 918.872 226.77Z" fill="#242425"/>
<path d="M182.265 25.7663L118.903 16L42.2022 138.436L81.7438 144.391L63.8786 170.117L16 162.733L36.4854 294.22L186.076 188.697L127.479 179.645L181.789 105.564L134.148 99.609L182.265 25.7663Z" fill="white" stroke="white" stroke-width="30.9663" stroke-miterlimit="5" stroke-linejoin="round"/>
<path d="M170.49 31.0616L122.336 23.7227L53.7379 133.061L93.8382 139.173L67.1677 177.575L24.4829 171.071L41.6625 282.035L167.487 193.012L115.256 184.74L169.145 111.014L122.335 105.029L170.49 31.0616Z" fill="#FBD570" stroke="#14171C" stroke-width="13.9791" stroke-miterlimit="5" stroke-linejoin="round"/>
<path d="M1013.57 195.634C984.313 195.634 963.008 180.37 966.665 150.161L972.071 105.323C972.866 98.9631 972.866 95.4652 970.322 94.5112C965.87 93.2392 963.803 91.3312 963.803 88.4692C963.803 80.3603 975.251 78.2933 991.945 78.2933C1008.32 78.2933 1019.13 80.3603 1019.13 86.7203C1019.13 91.6492 1015.16 93.7162 1009.75 94.9882C1005.78 96.2602 1005.3 101.825 1004.82 105.959L999.577 149.048C997.51 165.901 1006.1 174.964 1021.52 174.964C1036.78 174.964 1048.39 165.901 1050.46 149.048L1054.75 113.273C1056.02 101.984 1055.54 97.0552 1050.77 95.6242C1046 94.5112 1042.67 92.6032 1042.67 88.7872C1042.67 81.6323 1051.89 78.2933 1068.11 78.2933C1080.19 78.2933 1088.93 80.8373 1088.93 87.1972C1088.93 92.1262 1084.16 94.5112 1080.03 95.6242C1075.74 97.2142 1074.62 102.143 1073.19 113.273L1068.9 149.048C1065.4 177.031 1045.53 195.634 1013.57 195.634ZM1097.53 224.413C1085.12 224.413 1075.11 222.187 1075.11 215.668C1075.11 211.693 1078.76 209.149 1081.94 208.195C1084.01 207.241 1084.81 202.63 1085.44 197.701L1092.12 141.893C1092.76 137.441 1092.6 132.353 1090.21 131.081C1087.67 130.445 1085.12 128.537 1085.12 125.675C1085.12 122.654 1087.19 120.587 1089.74 118.997C1096.89 114.545 1111.04 111.524 1116.13 111.524C1122.01 111.524 1124.56 115.976 1124.56 119.792C1124.56 121.541 1124.08 124.562 1123.6 128.537C1129.01 118.52 1139.82 110.729 1151.43 110.729C1166.37 110.729 1177.18 124.085 1177.18 143.801C1177.18 177.031 1158.74 195.634 1135.05 195.634C1128.05 195.634 1121.38 193.408 1116.92 190.228L1115.97 198.337C1115.49 202.312 1115.02 207.082 1117.24 208.195C1121.38 209.308 1123.6 211.057 1123.6 214.237C1123.6 220.756 1114.38 224.413 1097.53 224.413ZM1119.95 165.901C1119.95 174.646 1123.13 181.96 1129.01 181.96C1138.55 181.96 1145.54 162.404 1145.54 147.14C1145.54 138.713 1143 130.286 1136.64 130.286C1127.1 130.286 1119.95 150.161 1119.95 165.901ZM1204.18 151.751C1200.2 151.751 1197.98 147.776 1196.86 145.073C1193.84 136.964 1191.93 118.679 1192.57 104.051C1192.73 88.3102 1201.79 77.0213 1213.24 77.0213C1222.62 77.0213 1228.5 84.4943 1228.5 95.6242C1228.5 109.139 1217.85 136.805 1214.19 143.324C1211.01 148.412 1208.31 151.751 1204.18 151.751ZM1184.46 179.734C1184.46 170.035 1191.93 162.245 1201.47 162.245C1210.7 162.245 1216.9 169.24 1216.9 177.19C1216.9 186.889 1209.27 194.68 1199.73 194.68C1190.66 194.68 1184.46 187.684 1184.46 179.734Z" fill="#242425"/>
</svg>
