<svg width="112" height="73" viewBox="0 0 112 73" fill="none" xmlns="http://www.w3.org/2000/svg">
<g clip-path="url(#clip0_3628_2867)">
<g filter="url(#filter0_ddd_3628_2867)">
<rect x="3.68652" y="4.00781" width="104.626" height="111.026" rx="4.8974" fill="#FDFCFC"/>
<path d="M20.4233 15.4777L18.2869 15.1484L15.7008 19.2766L17.034 19.4774L16.4317 20.3447L14.8174 20.0958L15.5081 24.5291L20.5518 20.9712L18.5761 20.666L20.4072 18.1682L18.801 17.9675L20.4233 15.4777Z" fill="white" stroke="white" stroke-width="1.04408" stroke-miterlimit="5" stroke-linejoin="round"/>
<path d="M20.0264 15.6576L18.4028 15.4102L16.0899 19.0967L17.4419 19.3027L16.5427 20.5976L15.1035 20.3782L15.6828 24.1196L19.9251 21.118L18.1641 20.8391L19.981 18.3533L18.4028 18.1515L20.0264 15.6576Z" fill="#FBD570" stroke="#242425" stroke-width="0.471328" stroke-miterlimit="5" stroke-linejoin="round"/>
<path d="M28.3555 22.3821C28.2074 22.3821 28.1063 22.3215 28.039 22.2137H26.8131C26.3618 22.2137 26.0116 22.2272 25.7624 22.2272C25.136 22.2272 24.8262 22.1464 24.8262 21.877C24.8262 21.6884 24.9878 21.6008 25.1831 21.5604C25.3111 21.5133 25.3246 21.3314 25.3246 21.0822V18.5093C25.3246 18.2533 25.2909 18.0782 25.1629 18.031C24.9676 17.9772 24.8464 17.9031 24.8464 17.7347C24.8464 17.4316 25.3381 17.3373 26.052 17.3373C26.8064 17.3373 27.2307 17.4316 27.2307 17.728C27.2307 17.9098 27.1027 17.9772 26.8939 18.031C26.7525 18.0782 26.739 18.2735 26.739 18.5227V20.8465C26.739 21.3786 26.7727 21.5402 27.0421 21.5402H27.2577C27.6416 21.5402 27.9245 21.4998 28.0322 21.3718C28.1265 21.2573 28.2006 21.0148 28.268 20.8262C28.369 20.5097 28.4835 20.3144 28.699 20.3144C28.9078 20.3144 29.0897 20.5366 29.0897 20.9879C29.0897 21.6547 28.7597 22.3821 28.3555 22.3821Z" fill="#242425"/>
<path d="M30.3564 22.2676C29.7502 22.2676 29.3393 22.1733 29.3393 21.877C29.3393 21.7153 29.4538 21.648 29.5953 21.6008C29.6828 21.5671 29.6963 21.3988 29.6963 21.1832V20.0315C29.6963 19.8227 29.6626 19.6206 29.5751 19.5937C29.3932 19.5398 29.3056 19.4522 29.3056 19.3243C29.3056 19.2232 29.3528 19.1424 29.474 19.0683C29.7839 18.8662 30.3833 18.7383 30.646 18.7383C31.003 18.7383 31.0232 18.9605 31.0232 19.3849C31.0232 19.6273 31.0164 19.917 31.0164 20.2537V21.1832C31.0164 21.4594 31.0299 21.5671 31.1107 21.6008C31.2589 21.6547 31.3734 21.7153 31.3734 21.877C31.3734 22.1801 30.9424 22.2676 30.3564 22.2676ZM29.5279 17.9165C29.5279 17.4855 30.0263 17.3306 30.4439 17.3306C30.8817 17.3306 31.0905 17.5394 31.0905 17.8357C31.0905 18.2466 30.5786 18.4082 30.1745 18.4082C29.7434 18.4082 29.5279 18.2129 29.5279 17.9165Z" fill="#242425"/>
<path d="M33.513 22.3148C33.1897 22.3148 32.8462 22.2474 32.5767 22.0992C32.5498 22.234 32.4488 22.3215 32.3006 22.3215C31.9369 22.3215 31.654 21.7355 31.654 21.3112C31.654 21.035 31.7752 20.9071 31.9301 20.9071C32.0985 20.9071 32.1928 21.0485 32.3141 21.2102C32.6037 21.5874 32.9607 21.7759 33.2705 21.7759C33.5264 21.7759 33.7016 21.6614 33.7016 21.4796C33.7016 21.2371 33.4523 21.1698 33.0011 21.035C32.3477 20.8262 31.7146 20.5703 31.7146 19.8833C31.7146 19.1693 32.3545 18.6911 33.156 18.6911C33.4523 18.6911 33.7824 18.7585 34.0451 18.8999C34.072 18.7719 34.173 18.6844 34.301 18.6844C34.6108 18.6844 34.8937 19.2165 34.8937 19.6004C34.8937 19.8766 34.7321 19.9709 34.5974 19.9709C34.4492 19.9709 34.3482 19.8563 34.2135 19.6947C33.9912 19.3916 33.6611 19.23 33.385 19.23C33.129 19.23 32.9876 19.3647 32.9876 19.5263C32.9876 19.7351 33.1964 19.8092 33.6409 19.9304C34.2202 20.0921 34.9813 20.3615 34.9813 21.1428C34.9813 21.8433 34.3482 22.3148 33.513 22.3148Z" fill="#242425"/>
<path d="M36.6986 22.2878C36.0318 22.2878 35.6614 21.9241 35.6614 21.2977L35.6546 19.5061H35.6075C35.4593 19.5061 35.237 19.4522 35.237 19.2232C35.237 18.9875 35.6007 18.7046 35.9106 18.4823C36.2002 18.2803 36.51 18.0984 36.7121 18.0984C36.8805 18.0984 36.9748 18.2062 36.9748 18.415V18.8932H37.7291C37.9581 18.8932 38.0322 18.974 38.0322 19.1895C38.0322 19.4051 37.9716 19.4926 37.7291 19.4926H36.9748V20.9408C36.9748 21.291 37.0691 21.392 37.2576 21.392C37.5473 21.392 37.7022 21.1563 37.8773 21.1563C37.9985 21.1563 38.0794 21.2371 38.0794 21.3988C38.0794 21.7221 37.5001 22.2878 36.6986 22.2878Z" fill="#242425"/>
<path d="M39.9356 22.3215C38.9118 22.3215 38.2046 21.6008 38.2046 20.5838C38.2046 19.4859 39.0263 18.7046 40.0636 18.7046C41.0402 18.7046 41.5858 19.3579 41.5858 19.917C41.5858 20.2537 41.3837 20.4693 41.0133 20.4693H39.39C39.4911 20.9475 39.8278 21.2304 40.3465 21.2304C40.6967 21.2304 40.9392 21.1091 41.1413 20.961C41.2221 20.9071 41.3029 20.8599 41.3837 20.8599C41.5184 20.8599 41.606 20.9475 41.606 21.1361C41.606 21.2977 41.5252 21.4998 41.377 21.6884C41.1143 22.0252 40.6159 22.3215 39.9356 22.3215ZM39.3564 20.0449L40.0434 20.0315C40.3869 20.018 40.5351 19.8968 40.5351 19.688C40.5351 19.4388 40.3532 19.2232 40.0434 19.2232C39.6527 19.2232 39.39 19.56 39.3564 20.0449Z" fill="#242425"/>
<path d="M45.2756 22.2676C44.6695 22.2676 44.2855 22.1733 44.2855 21.8837C44.2855 21.7221 44.4 21.6614 44.5213 21.6143C44.6088 21.5537 44.6156 21.3853 44.6156 21.1832V20.5029C44.6156 19.8159 44.4741 19.5869 44.1576 19.5869C43.8679 19.5869 43.6322 19.8159 43.6255 20.5164V21.1832C43.6255 21.4324 43.6255 21.5537 43.713 21.6143C43.841 21.6682 43.9555 21.7221 43.9555 21.8837C43.9555 22.1801 43.5514 22.2676 42.9654 22.2676C42.3592 22.2676 41.9483 22.1733 41.9483 21.877C41.9483 21.7086 42.0763 21.6412 42.2043 21.6008C42.2986 21.5537 42.3053 21.392 42.3053 21.1832V20.0315C42.3053 19.8227 42.2716 19.6206 42.1841 19.5937C42.0022 19.5398 41.9147 19.4522 41.9147 19.3243C41.9147 19.2232 41.9618 19.1424 42.083 19.0683C42.3929 18.8662 42.9923 18.7383 43.255 18.7383C43.6053 18.7383 43.6255 18.9605 43.6255 19.3849V19.4859C43.841 19.0414 44.2653 18.7046 44.8513 18.7046C45.5046 18.7046 45.9357 19.1357 45.9357 19.9641V21.1832C45.9357 21.4392 45.9357 21.5537 46.03 21.6008C46.1714 21.648 46.2927 21.7086 46.2927 21.877C46.2927 22.1801 45.8616 22.2676 45.2756 22.2676Z" fill="#242425"/>
<path d="M48.4745 21.261C47.4881 21.261 46.7698 20.7463 46.8931 19.7277L47.0753 18.216C47.1021 18.0015 47.1021 17.8836 47.0164 17.8514C46.8663 17.8085 46.7966 17.7442 46.7966 17.6477C46.7966 17.3743 47.1826 17.3046 47.7455 17.3046C48.2976 17.3046 48.6622 17.3743 48.6622 17.5887C48.6622 17.7549 48.5281 17.8246 48.3459 17.8675C48.2119 17.9104 48.1958 18.098 48.1797 18.2374L48.0028 19.6902C47.9331 20.2585 48.2226 20.564 48.7426 20.564C49.2572 20.564 49.6486 20.2585 49.7183 19.6902L49.863 18.484C49.9059 18.1034 49.8898 17.9372 49.729 17.8889C49.5682 17.8514 49.4556 17.7871 49.4556 17.6584C49.4556 17.4172 49.7665 17.3046 50.3133 17.3046C50.7208 17.3046 51.0156 17.3904 51.0156 17.6048C51.0156 17.771 50.8548 17.8514 50.7154 17.8889C50.5707 17.9426 50.5331 18.1087 50.4849 18.484L50.3401 19.6902C50.2222 20.6337 49.5521 21.261 48.4745 21.261Z" fill="#242425"/>
<path d="M51.3053 22.2313C50.8872 22.2313 50.5494 22.1562 50.5494 21.9364C50.5494 21.8024 50.6727 21.7166 50.7799 21.6845C50.8496 21.6523 50.8764 21.4968 50.8979 21.3306L51.123 19.449C51.1445 19.2989 51.1391 19.1273 51.0587 19.0844C50.9729 19.063 50.8872 18.9987 50.8872 18.9022C50.8872 18.8003 50.9568 18.7306 51.0426 18.677C51.2839 18.5269 51.761 18.425 51.9325 18.425C52.1309 18.425 52.2167 18.5751 52.2167 18.7038C52.2167 18.7628 52.2006 18.8646 52.1845 18.9987C52.3668 18.6609 52.7313 18.3982 53.1227 18.3982C53.6266 18.3982 53.9911 18.8485 53.9911 19.5133C53.9911 20.6337 53.3693 21.261 52.5705 21.261C52.3346 21.261 52.1094 21.1859 51.9593 21.0787L51.9272 21.3521C51.9111 21.4861 51.895 21.6469 51.9701 21.6845C52.1094 21.722 52.1845 21.781 52.1845 21.8882C52.1845 22.108 51.8736 22.2313 51.3053 22.2313ZM52.0612 20.2585C52.0612 20.5533 52.1684 20.7999 52.3668 20.7999C52.6884 20.7999 52.9243 20.1405 52.9243 19.6259C52.9243 19.3417 52.8385 19.0576 52.6241 19.0576C52.3024 19.0576 52.0612 19.7277 52.0612 20.2585Z" fill="#242425"/>
<path d="M54.9012 19.7813C54.7672 19.7813 54.6921 19.6473 54.6546 19.5562C54.5528 19.2828 54.4884 18.6663 54.5099 18.1731C54.5152 17.6423 54.8208 17.2617 55.2068 17.2617C55.5231 17.2617 55.7214 17.5137 55.7214 17.8889C55.7214 18.3446 55.3623 19.2774 55.239 19.4972C55.1317 19.6688 55.0406 19.7813 54.9012 19.7813ZM54.2365 20.7249C54.2365 20.3978 54.4884 20.1352 54.8101 20.1352C55.121 20.1352 55.3301 20.371 55.3301 20.6391C55.3301 20.9661 55.0728 21.2288 54.7511 21.2288C54.4455 21.2288 54.2365 20.9929 54.2365 20.7249Z" fill="#242425"/>
<path d="M16.8903 33.7895C15.87 33.7895 14.9469 32.9042 14.9469 31.7705C14.9469 30.6045 15.8377 29.7516 16.9605 29.7516C17.3546 29.7516 17.6785 29.8542 17.9268 29.9945C17.97 29.8919 18.0509 29.8272 18.1589 29.8272C18.4666 29.8272 18.6771 30.3724 18.6771 30.8312C18.6771 31.2415 18.4882 31.3765 18.3479 31.3765C18.1427 31.3765 18.0563 31.2253 17.916 30.977C17.7055 30.6045 17.3438 30.3454 16.9497 30.34C16.4045 30.34 16.1184 30.7719 16.1184 31.3657C16.1184 32.197 16.6852 32.9798 17.3762 32.9798C17.6731 32.9798 17.943 32.8664 18.1373 32.6019C18.2345 32.4723 18.3101 32.2996 18.4612 32.2996C18.6124 32.2996 18.6933 32.4345 18.6933 32.6343C18.6933 33.0769 18.3586 33.6815 18.0348 33.6815C17.9376 33.6815 17.8566 33.6383 17.808 33.5682C17.5597 33.6923 17.252 33.7895 16.8903 33.7895ZM20.4595 33.7895C19.5472 33.7895 18.9425 33.1957 18.9425 32.359C18.9425 31.4844 19.6281 30.8798 20.6268 30.8798C21.5283 30.8798 22.1329 31.479 22.1329 32.3158C22.1329 33.1957 21.4365 33.7895 20.4595 33.7895ZM19.979 31.8623C19.979 32.4237 20.2975 33.3414 20.724 33.3414C20.9453 33.3414 21.1019 33.1471 21.1019 32.807C21.1019 32.251 20.7726 31.3279 20.3569 31.3279C20.141 31.3279 19.979 31.5114 19.979 31.8623ZM25.0684 33.7463C24.5826 33.7463 24.2749 33.6707 24.2749 33.4386C24.2749 33.3091 24.3667 33.2605 24.4638 33.2227C24.534 33.1741 24.5394 33.0391 24.5394 32.8772V32.332C24.5394 31.7813 24.4261 31.5978 24.1723 31.5978C23.9402 31.5978 23.7513 31.7813 23.7459 32.3428V32.8772C23.7459 33.0769 23.7459 33.1741 23.816 33.2227C23.9186 33.2659 24.0104 33.3091 24.0104 33.4386C24.0104 33.6761 23.6865 33.7463 23.2168 33.7463C22.731 33.7463 22.4017 33.6707 22.4017 33.4332C22.4017 33.2983 22.5043 33.2443 22.6068 33.2119C22.6824 33.1741 22.6878 33.0445 22.6878 32.8772V31.9541C22.6878 31.7867 22.6608 31.6248 22.5906 31.6032C22.4449 31.56 22.3747 31.4898 22.3747 31.3873C22.3747 31.3063 22.4125 31.2415 22.5097 31.1821C22.758 31.0202 23.2384 30.9176 23.449 30.9176C23.7297 30.9176 23.7459 31.0958 23.7459 31.4359V31.5168C23.9186 31.1605 24.2587 30.8906 24.7284 30.8906C25.252 30.8906 25.5975 31.2361 25.5975 31.9001V32.8772C25.5975 33.0823 25.5975 33.1741 25.6731 33.2119C25.7864 33.2497 25.8836 33.2983 25.8836 33.4332C25.8836 33.6761 25.5381 33.7463 25.0684 33.7463ZM26.9825 33.7463C26.4265 33.7463 26.0756 33.6707 26.0756 33.4332C26.0756 33.2983 26.1836 33.2443 26.3293 33.1957C26.4049 33.1741 26.4535 33.0445 26.4535 32.8664V31.6032H26.2807C26.0756 31.6032 26.0162 31.533 26.0162 31.3603C26.0162 31.1929 26.0756 31.1228 26.2807 31.1228H26.3995C26.3077 30.9662 26.1674 30.7881 26.1674 30.4966C26.1674 30.0431 26.5507 29.649 27.2146 29.649C27.7761 29.649 28.1701 29.9567 28.1701 30.3562C28.1701 30.6099 28.0136 30.7665 27.7815 30.7665C27.5547 30.7665 27.4306 30.6261 27.3658 30.4534C27.301 30.2914 27.2578 30.0863 27.0797 30.0863C26.9555 30.0863 26.8853 30.1942 26.8853 30.34C26.8853 30.7287 27.2578 30.8744 27.436 31.1228H27.7923C27.9866 31.1228 28.046 31.1929 28.046 31.3603C28.046 31.533 27.9866 31.6032 27.7923 31.6032H27.5115V32.8502C27.5115 33.0823 27.5655 33.1687 27.6465 33.1957C27.8246 33.2497 27.9326 33.2983 27.9326 33.4332C27.9326 33.6815 27.5331 33.7463 26.9825 33.7463ZM28.2511 31.3873C28.2511 31.3063 28.2889 31.2415 28.3861 31.1821C28.6344 31.0202 29.1148 30.9176 29.3254 30.9176C29.6115 30.9176 29.6277 31.0958 29.6277 31.4359C29.6277 31.6302 29.6223 31.8623 29.6223 32.1322V32.8772C29.6223 33.0985 29.6331 33.1849 29.6978 33.2119C29.8166 33.2551 29.9084 33.3037 29.9084 33.4332C29.9084 33.6761 29.5629 33.7463 29.0932 33.7463C28.6074 33.7463 28.2781 33.6707 28.2781 33.4332C28.2781 33.3037 28.3699 33.2497 28.4832 33.2119C28.5534 33.1849 28.5642 33.0499 28.5642 32.8772V31.9541C28.5642 31.7867 28.5372 31.6248 28.467 31.6032C28.3213 31.56 28.2511 31.4898 28.2511 31.3873ZM28.4292 30.259C28.4292 29.9135 28.8287 29.7894 29.1634 29.7894C29.5143 29.7894 29.6816 29.9567 29.6816 30.1942C29.6816 30.5235 29.2714 30.6531 28.9475 30.6531C28.602 30.6531 28.4292 30.4966 28.4292 30.259ZM30.9663 33.7463C30.4805 33.7463 30.1512 33.6707 30.1512 33.4332C30.1512 33.3037 30.2429 33.2497 30.3563 33.2119C30.4265 33.1849 30.4373 33.0607 30.4373 32.8772V31.9541C30.4373 31.7867 30.4103 31.6248 30.3401 31.6032C30.1944 31.56 30.1242 31.4898 30.1242 31.3873C30.1242 31.3063 30.162 31.2415 30.2591 31.1821C30.5075 31.0202 30.9879 30.9176 31.1984 30.9176C31.4791 30.9176 31.4953 31.0958 31.4953 31.4359V31.5546C31.6627 31.1497 31.9542 30.8852 32.2889 30.8852C32.5858 30.8852 32.8233 31.1012 32.8233 31.479C32.8233 31.8461 32.629 32.0836 32.3267 32.0836C32.1377 32.0836 32.0028 31.9919 31.9164 31.9055C31.8516 31.8407 31.7922 31.7759 31.7167 31.7759C31.6033 31.7759 31.4953 31.9433 31.4953 32.1484V32.8664C31.4953 33.0823 31.5169 33.1687 31.5925 33.1957C31.7599 33.2443 31.8624 33.3037 31.8624 33.4386C31.8624 33.6761 31.4899 33.7463 30.9663 33.7463ZM33.7972 33.7463C33.3114 33.7463 32.9821 33.6707 32.9821 33.4332C32.9821 33.3037 33.0739 33.2497 33.1872 33.2119C33.2574 33.1849 33.2682 33.0607 33.2682 32.8772V31.9541C33.2682 31.7867 33.2412 31.6248 33.171 31.6032C33.0253 31.56 32.9551 31.4898 32.9551 31.3873C32.9551 31.3063 32.9929 31.2415 33.0901 31.1821C33.3384 31.0202 33.8188 30.9176 34.0294 30.9176C34.3155 30.9176 34.3263 31.0958 34.3263 31.4359V31.5222C34.499 31.1605 34.8337 30.8906 35.298 30.8906C35.7082 30.8906 36.0051 31.1066 36.1077 31.533C36.2912 31.1659 36.6367 30.8906 37.1226 30.8906C37.6462 30.8906 37.9755 31.2361 37.9755 31.9001V32.8772C37.9755 33.0985 37.9863 33.1849 38.0511 33.2119C38.1752 33.2551 38.2616 33.3037 38.2616 33.4332C38.2616 33.6761 37.9215 33.7463 37.4465 33.7463C36.966 33.7463 36.6583 33.6707 36.6583 33.4386C36.6583 33.3091 36.7447 33.2605 36.8473 33.2227C36.9174 33.1795 36.9174 33.0337 36.9174 32.8772V32.332C36.9174 31.7975 36.8203 31.5978 36.5666 31.5978C36.3398 31.5978 36.1563 31.7759 36.1509 32.3428V32.8772C36.1509 33.0715 36.1509 33.1687 36.2265 33.2227C36.3236 33.2659 36.4154 33.3091 36.4154 33.4386C36.4154 33.6761 36.0969 33.7463 35.6219 33.7463C35.1414 33.7463 34.8337 33.6707 34.8337 33.4386C34.8337 33.3091 34.9201 33.2605 35.0226 33.2227C35.0928 33.1795 35.0928 33.0337 35.0928 32.8772V32.332C35.0928 31.8029 35.0011 31.5978 34.7419 31.5978C34.5152 31.5978 34.3317 31.7759 34.3263 32.3428V32.8772C34.3263 33.0715 34.3263 33.1687 34.3964 33.2227C34.499 33.2659 34.5908 33.3091 34.5908 33.4386C34.5908 33.6761 34.2669 33.7463 33.7972 33.7463ZM40.2817 34.7774C39.8553 34.7774 39.526 34.4859 39.526 34.1728C39.526 33.9353 39.6879 33.7409 39.9309 33.7409C40.1468 33.7409 40.2709 33.8759 40.2979 34.0756C40.3033 34.1188 40.3087 34.189 40.3195 34.2268C40.3357 34.2861 40.3789 34.3185 40.4437 34.3185C40.5679 34.3185 40.6434 34.2106 40.6758 34.0162C40.6974 33.8543 40.5786 33.6491 40.4113 33.2983C40.2709 33.0121 39.9578 32.3266 39.7743 31.9217C39.6232 31.587 39.5854 31.5222 39.5044 31.4952C39.3802 31.452 39.2885 31.3711 39.2885 31.2523C39.2885 31.0472 39.5476 30.9176 40.19 30.9176C40.8 30.9176 41.0645 31.0364 41.0645 31.2415C41.0645 31.3711 40.9619 31.4359 40.8486 31.4736C40.773 31.5006 40.7946 31.6464 40.8378 31.7975C40.9187 32.0405 41.1023 32.4561 41.2642 32.7962C41.4154 32.4345 41.5611 32.0027 41.6043 31.7759C41.6421 31.614 41.6367 31.4844 41.5395 31.4412C41.41 31.3873 41.3344 31.3279 41.3344 31.2199C41.3344 31.0472 41.5611 30.9176 41.9876 30.9176C42.3871 30.9176 42.5976 31.0364 42.5976 31.2145C42.5976 31.3549 42.5058 31.4143 42.3547 31.4844C42.2035 31.5546 42.128 31.722 42.02 32.0081C41.8472 32.4831 41.7123 32.8394 41.5072 33.4062C41.2264 34.189 40.9997 34.7774 40.2817 34.7774ZM44.0453 33.7895C43.133 33.7895 42.5284 33.1957 42.5284 32.359C42.5284 31.4844 43.2139 30.8798 44.2126 30.8798C45.1141 30.8798 45.7187 31.479 45.7187 32.3158C45.7187 33.1957 45.0224 33.7895 44.0453 33.7895ZM43.5648 31.8623C43.5648 32.4237 43.8833 33.3414 44.3098 33.3414C44.5311 33.3414 44.6877 33.1471 44.6877 32.807C44.6877 32.251 44.3584 31.3279 43.9427 31.3279C43.7268 31.3279 43.5648 31.5114 43.5648 31.8623ZM47.0618 33.7895C46.5327 33.7895 46.198 33.444 46.198 32.78V31.9001C46.198 31.7328 46.171 31.56 46.0955 31.5384C45.9605 31.4952 45.8903 31.4197 45.8903 31.3171C45.8903 31.2361 45.9335 31.1659 46.0307 31.1174C46.2844 30.9932 46.7217 30.9176 46.9538 30.9176C47.2399 30.9176 47.2561 31.085 47.2561 31.4359V32.0998V32.3536C47.2561 32.8394 47.3425 33.0877 47.607 33.0877C47.8445 33.0877 48.0281 32.8934 48.0281 32.2888V31.9055C48.0281 31.7436 47.9957 31.5708 47.9147 31.5384C47.7689 31.5006 47.6934 31.4197 47.6934 31.3171C47.6934 31.2361 47.7473 31.1659 47.8445 31.1174C48.1036 30.9878 48.5463 30.9176 48.7784 30.9176C49.0699 30.9176 49.0861 31.085 49.0861 31.4359V32.1322V32.726C49.0861 32.8988 49.1131 33.0553 49.1833 33.0769C49.3236 33.1201 49.3938 33.1903 49.3938 33.2929C49.3938 33.3738 49.356 33.4386 49.2589 33.498C49.0105 33.6653 48.5355 33.7625 48.3196 33.7625C48.0442 33.7625 48.0227 33.5844 48.0227 33.2443V33.1687C47.8499 33.525 47.5206 33.7895 47.0618 33.7895ZM50.4454 33.7463C49.9596 33.7463 49.6303 33.6707 49.6303 33.4332C49.6303 33.3037 49.7221 33.2497 49.8354 33.2119C49.9056 33.1849 49.9164 33.0607 49.9164 32.8772V31.9541C49.9164 31.7867 49.8894 31.6248 49.8192 31.6032C49.6735 31.56 49.6033 31.4898 49.6033 31.3873C49.6033 31.3063 49.6411 31.2415 49.7383 31.1821C49.9866 31.0202 50.467 30.9176 50.6775 30.9176C50.9583 30.9176 50.9745 31.0958 50.9745 31.4359V31.5546C51.1418 31.1497 51.4333 30.8852 51.768 30.8852C52.0649 30.8852 52.3024 31.1012 52.3024 31.479C52.3024 31.8461 52.1081 32.0836 51.8058 32.0836C51.6168 32.0836 51.4819 31.9919 51.3955 31.9055C51.3307 31.8407 51.2714 31.7759 51.1958 31.7759C51.0824 31.7759 50.9745 31.9433 50.9745 32.1484V32.8664C50.9745 33.0823 50.996 33.1687 51.0716 33.1957C51.239 33.2443 51.3415 33.3037 51.3415 33.4386C51.3415 33.6761 50.9691 33.7463 50.4454 33.7463ZM54.7913 33.7895C53.9708 33.7895 53.404 33.2119 53.404 32.3967C53.404 31.5168 54.0626 30.8906 54.8939 30.8906C55.6766 30.8906 56.1139 31.4143 56.1139 31.8623C56.1139 32.1322 55.952 32.305 55.6551 32.305H54.3541C54.435 32.6882 54.705 32.915 55.1206 32.915C55.4013 32.915 55.5957 32.8178 55.7576 32.699C55.8224 32.6559 55.8872 32.6181 55.952 32.6181C56.0599 32.6181 56.1301 32.6882 56.1301 32.8394C56.1301 32.969 56.0653 33.1309 55.9466 33.2821C55.736 33.552 55.3366 33.7895 54.7913 33.7895ZM54.3271 31.9649L54.8777 31.9541C55.153 31.9433 55.2718 31.8461 55.2718 31.6788C55.2718 31.479 55.126 31.3063 54.8777 31.3063C54.5646 31.3063 54.3541 31.5762 54.3271 31.9649ZM57.2196 33.7463C56.7338 33.7463 56.4045 33.6707 56.4045 33.4332C56.4045 33.3037 56.4963 33.2497 56.6096 33.2119C56.6798 33.1849 56.6906 33.0607 56.6906 32.8772V31.9541C56.6906 31.7867 56.6636 31.6248 56.5934 31.6032C56.4477 31.56 56.3775 31.4898 56.3775 31.3873C56.3775 31.3063 56.4153 31.2415 56.5124 31.1821C56.7608 31.0202 57.2412 30.9176 57.4517 30.9176C57.7379 30.9176 57.7487 31.0958 57.7487 31.4359V31.5222C57.9214 31.1605 58.2561 30.8906 58.7203 30.8906C59.1306 30.8906 59.4275 31.1066 59.5301 31.533C59.7136 31.1659 60.0591 30.8906 60.545 30.8906C61.0686 30.8906 61.3979 31.2361 61.3979 31.9001V32.8772C61.3979 33.0985 61.4087 33.1849 61.4735 33.2119C61.5976 33.2551 61.684 33.3037 61.684 33.4332C61.684 33.6761 61.3439 33.7463 60.8689 33.7463C60.3884 33.7463 60.0807 33.6707 60.0807 33.4386C60.0807 33.3091 60.1671 33.2605 60.2696 33.2227C60.3398 33.1795 60.3398 33.0337 60.3398 32.8772V32.332C60.3398 31.7975 60.2427 31.5978 59.9889 31.5978C59.7622 31.5978 59.5787 31.7759 59.5733 32.3428V32.8772C59.5733 33.0715 59.5733 33.1687 59.6488 33.2227C59.746 33.2659 59.8378 33.3091 59.8378 33.4386C59.8378 33.6761 59.5193 33.7463 59.0442 33.7463C58.5638 33.7463 58.2561 33.6707 58.2561 33.4386C58.2561 33.3091 58.3425 33.2605 58.445 33.2227C58.5152 33.1795 58.5152 33.0337 58.5152 32.8772V32.332C58.5152 31.8029 58.4234 31.5978 58.1643 31.5978C57.9376 31.5978 57.754 31.7759 57.7487 32.3428V32.8772C57.7487 33.0715 57.7487 33.1687 57.8188 33.2227C57.9214 33.2659 58.0132 33.3091 58.0132 33.4386C58.0132 33.6761 57.6893 33.7463 57.2196 33.7463ZM61.8489 32.9906C61.8489 32.4237 62.3348 32.1106 62.9988 32.1106C63.1931 32.1106 63.3874 32.143 63.5386 32.1808V31.8515C63.5386 31.5762 63.5224 31.3279 63.2903 31.3279C63.1445 31.3279 63.0366 31.4682 62.9232 31.614C62.8206 31.7705 62.6695 31.9379 62.3888 31.9379C62.162 31.9379 62.0379 31.8029 62.0379 31.6518C62.0379 31.2901 62.8584 30.8906 63.5818 30.8906C64.2512 30.8906 64.6075 31.2253 64.6075 31.8353V32.7476C64.6075 32.9852 64.6452 33.1147 64.872 33.1741C64.9098 33.1849 64.9152 33.2011 64.9152 33.2389C64.9152 33.4656 64.6776 33.7409 64.2458 33.7409C63.9381 33.7409 63.7113 33.6006 63.5872 33.3252C63.4036 33.606 63.0959 33.7787 62.7127 33.7787C62.2322 33.7787 61.8489 33.4926 61.8489 32.9906ZM62.8908 32.8502C62.8908 33.0877 63.0096 33.2227 63.1985 33.2227C63.3928 33.2227 63.5656 33.0715 63.5656 32.7368V32.5695C63.5008 32.5155 63.3928 32.4669 63.2633 32.4669C63.0312 32.4669 62.8908 32.6127 62.8908 32.8502ZM65.9445 33.7463C65.4586 33.7463 65.1294 33.6707 65.1294 33.4332C65.1294 33.3037 65.2211 33.2497 65.3345 33.2119C65.4047 33.1849 65.4155 33.0499 65.4155 32.8772V31.9541C65.4155 31.7867 65.3885 31.6248 65.3183 31.6032C65.1725 31.56 65.1024 31.4898 65.1024 31.3873C65.1024 31.3063 65.1402 31.2415 65.2373 31.1821C65.4856 31.0202 65.9661 30.9176 66.1766 30.9176C66.4627 30.9176 66.4789 31.0958 66.4789 31.4359C66.4789 31.6302 66.4735 31.8623 66.4735 32.1322V32.8772C66.4735 33.0985 66.4843 33.1849 66.5491 33.2119C66.6679 33.2551 66.7596 33.3037 66.7596 33.4332C66.7596 33.6761 66.4141 33.7463 65.9445 33.7463ZM65.2805 30.259C65.2805 29.9135 65.68 29.7894 66.0147 29.7894C66.3656 29.7894 66.5329 29.9567 66.5329 30.1942C66.5329 30.5235 66.1226 30.6531 65.7987 30.6531C65.4533 30.6531 65.2805 30.4966 65.2805 30.259ZM67.7727 33.7463C67.2868 33.7463 66.9521 33.6707 66.9521 33.4332C66.9521 33.3037 67.0493 33.2497 67.1626 33.2119C67.2328 33.1849 67.2436 33.0607 67.2436 32.8772V30.7773C67.2436 30.5937 67.2058 30.4264 67.1303 30.394C66.9683 30.3454 66.8765 30.2752 66.8765 30.1619C66.8765 30.0809 66.9143 30.0107 67.0115 29.9513C67.276 29.7894 67.7727 29.6868 67.9994 29.6868C68.2855 29.6868 68.3071 29.865 68.3071 30.2104C68.3071 30.3994 68.3017 30.6315 68.3017 30.9014V32.8772C68.3017 33.0985 68.3125 33.1849 68.3773 33.2119C68.5014 33.2551 68.5878 33.3037 68.5878 33.4332C68.5878 33.6761 68.2477 33.7463 67.7727 33.7463Z" fill="#242425"/>
<rect x="14.8174" y="39.418" width="53.4262" height="3.06088" rx="0.556523" fill="#EAEAEA"/>
<rect x="14.8174" y="43.5938" width="92.3828" height="3.06088" rx="0.556523" fill="#EAEAEA"/>
<rect x="14.8174" y="47.7656" width="57.6001" height="3.06088" rx="0.556523" fill="#EAEAEA"/>
</g>
</g>
<defs>
<filter id="filter0_ddd_3628_2867" x="2.29522" y="3.17303" width="107.409" height="113.81" filterUnits="userSpaceOnUse" color-interpolation-filters="sRGB">
<feFlood flood-opacity="0" result="BackgroundImageFix"/>
<feColorMatrix in="SourceAlpha" type="matrix" values="0 0 0 0 0 0 0 0 0 0 0 0 0 0 0 0 0 0 127 0" result="hardAlpha"/>
<feMorphology radius="0.278261" operator="dilate" in="SourceAlpha" result="effect1_dropShadow_3628_2867"/>
<feOffset/>
<feComposite in2="hardAlpha" operator="out"/>
<feColorMatrix type="matrix" values="0 0 0 0 0 0 0 0 0 0 0 0 0 0 0 0 0 0 0.06 0"/>
<feBlend mode="normal" in2="BackgroundImageFix" result="effect1_dropShadow_3628_2867"/>
<feColorMatrix in="SourceAlpha" type="matrix" values="0 0 0 0 0 0 0 0 0 0 0 0 0 0 0 0 0 0 127 0" result="hardAlpha"/>
<feMorphology radius="0.834784" operator="erode" in="SourceAlpha" result="effect2_dropShadow_3628_2867"/>
<feOffset dy="1.11305"/>
<feGaussianBlur stdDeviation="0.695654"/>
<feComposite in2="hardAlpha" operator="out"/>
<feColorMatrix type="matrix" values="0 0 0 0 0 0 0 0 0 0 0 0 0 0 0 0 0 0 0.1 0"/>
<feBlend mode="normal" in2="effect1_dropShadow_3628_2867" result="effect2_dropShadow_3628_2867"/>
<feColorMatrix in="SourceAlpha" type="matrix" values="0 0 0 0 0 0 0 0 0 0 0 0 0 0 0 0 0 0 127 0" result="hardAlpha"/>
<feOffset dy="0.556523"/>
<feGaussianBlur stdDeviation="0.695654"/>
<feComposite in2="hardAlpha" operator="out"/>
<feColorMatrix type="matrix" values="0 0 0 0 0 0 0 0 0 0 0 0 0 0 0 0 0 0 0.07 0"/>
<feBlend mode="normal" in2="effect2_dropShadow_3628_2867" result="effect3_dropShadow_3628_2867"/>
<feBlend mode="normal" in="SourceGraphic" in2="effect3_dropShadow_3628_2867" result="shape"/>
</filter>
<clipPath id="clip0_3628_2867">
<rect width="111.305" height="72.0697" fill="white" transform="translate(0.348633 0.664062)"/>
</clipPath>
</defs>
</svg>
